<svg width="209" height="44" viewBox="0 0 209 44" xmlns="http://www.w3.org/2000/svg" xmlns:xlink="http://www.w3.org/1999/xlink"><title>Artboard</title><defs><path id="a" d="M0 0h223v119H0z"/></defs><g transform="translate(-6 -72)" fill="none" fill-rule="evenodd"><mask id="b" fill="#fff"><use xlink:href="#a"/></mask><g mask="url(#b)"><g transform="translate(6 72)" fill="#DF1E36" fill-rule="nonzero"><path d="M13.98 20.86c2.94-1.5 4.74-4.62 4.74-8.94V10.9c0-6.36-3.84-9.9-9.48-9.9H2.76A1.89 1.89 0 0 0 .78 2.98v37.98A1.906 1.906 0 0 0 2.76 43h6.9c5.7 0 9.66-3.72 9.66-10.02v-3c0-4.62-2.04-7.8-5.34-9.12zm.72-9.84v1.86c0 4.32-2.22 6.6-5.88 6.6H4.8V4.42h4.02c3.66 0 5.88 2.28 5.88 6.6zm.6 21.96c0 4.32-2.22 6.6-5.88 6.6H4.8V22.72h4.62c3.66 0 5.88 2.28 5.88 6.6v3.66zm10.38 8.28a1.906 1.906 0 0 0 1.98 2.04 1.953 1.953 0 0 0 2.04-2.04V25.42h4.32c.442-.01.883-.05 1.32-.12l5.88 16.32c.42 1.2 1.08 1.68 1.98 1.68a1.842 1.842 0 0 0 1.98-1.92 4.9 4.9 0 0 0-.3-1.32L38.94 24.1c3-1.32 4.98-4.38 4.98-8.82V11.2c0-6.6-3.84-10.2-9.78-10.2h-6.48a1.89 1.89 0 0 0-1.98 1.98v38.28zm4.02-19.2V4.66h4.32c3.66 0 5.88 2.28 5.88 6.6v4.2c0 4.32-2.22 6.6-5.88 6.6H29.7zm38.46 19.38a1.763 1.763 0 0 0 1.86 1.86A1.98 1.98 0 0 0 72 41.38l1.8-9.06h9l1.74 9a2.046 2.046 0 0 0 2.04 1.98 1.906 1.906 0 0 0 2.04-1.98 8.431 8.431 0 0 0-.12-1.08L80.76 2.92C80.4 1.42 79.62.7 78.42.7s-1.98.72-2.34 2.22l-7.8 37.5a6.682 6.682 0 0 0-.12 1.02zm6.18-12.42L78.3 8.5l3.96 20.52h-7.92zM93 41.26a1.906 1.906 0 0 0 1.98 2.04 1.953 1.953 0 0 0 2.04-2.04V22.3l9.9 19.56a2.106 2.106 0 0 0 1.98 1.44 1.939 1.939 0 0 0 2.04-1.98 3.3 3.3 0 0 0-.42-1.38l-9.84-18.78 9.3-17.22c.216-.408.339-.859.36-1.32A1.926 1.926 0 0 0 108.3.7a2.194 2.194 0 0 0-2.04 1.56L97.02 20.5V2.68A1.939 1.939 0 0 0 94.98.7 1.89 1.89 0 0 0 93 2.68v38.58zm46.68-36.48a1.827 1.827 0 0 0 1.92-1.92A1.812 1.812 0 0 0 139.68 1h-10.86a1.89 1.89 0 0 0-1.98 1.98v38.28a1.906 1.906 0 0 0 1.98 2.04 1.953 1.953 0 0 0 2.04-2.04V25h7.02a1.749 1.749 0 0 0 1.8-1.86 1.783 1.783 0 0 0-1.8-1.86h-7.02V4.78h8.82zm6.36 36.48a1.906 1.906 0 0 0 1.98 2.04 1.953 1.953 0 0 0 2.04-2.04V25.42h4.32c.442-.01.883-.05 1.32-.12l5.88 16.32c.42 1.2 1.08 1.68 1.98 1.68a1.842 1.842 0 0 0 1.98-1.92 4.9 4.9 0 0 0-.3-1.32L159.3 24.1c3-1.32 4.98-4.38 4.98-8.82V11.2c0-6.6-3.84-10.2-9.78-10.2h-6.48a1.89 1.89 0 0 0-1.98 1.98v38.28zm4.02-19.2V4.66h4.32c3.66 0 5.88 2.28 5.88 6.6v4.2c0 4.32-2.22 6.6-5.88 6.6h-4.32zm34.08 17.16h-9.36V22.9h7.38a1.654 1.654 0 0 0 1.74-1.8 1.654 1.654 0 0 0-1.74-1.8h-7.38V4.78h9.06a1.812 1.812 0 0 0 1.86-1.92A1.8 1.8 0 0 0 183.84 1h-11.1a1.89 1.89 0 0 0-1.98 1.98v37.98a1.906 1.906 0 0 0 1.98 2.04h11.4a1.812 1.812 0 0 0 1.86-1.92 1.8 1.8 0 0 0-1.86-1.86zm20.34 0h-9.36V22.9h7.38a1.654 1.654 0 0 0 1.74-1.8 1.654 1.654 0 0 0-1.74-1.8h-7.38V4.78h9.06a1.812 1.812 0 0 0 1.86-1.92A1.8 1.8 0 0 0 204.18 1h-11.1a1.89 1.89 0 0 0-1.98 1.98v37.98a1.906 1.906 0 0 0 1.98 2.04h11.4a1.812 1.812 0 0 0 1.86-1.92 1.8 1.8 0 0 0-1.86-1.86z"/><rect x="49" y="1" width="17" height="4" rx="2"/><rect x="49" y="20" width="17" height="4" rx="2"/><rect x="49" y="39" width="17" height="4" rx="2"/></g></g></g></svg>