<svg xmlns="http://www.w3.org/2000/svg" width="223" height="119" viewBox="0 0 223 119"><defs><clipPath id="a"><path d="M0 0h223v119H0z"/></clipPath></defs><g data-name="Artboard – 3" clip-path="url(#a)"><g data-name="Group 78" transform="translate(-2749 -3782)" fill="#fff"><path data-name="Path 53" d="M2768.98 3810.86c2.94-1.5 4.74-4.62 4.74-8.94v-1.02c0-6.36-3.84-9.9-9.48-9.9h-6.48a1.89 1.89 0 0 0-1.98 1.98v37.98a1.906 1.906 0 0 0 1.98 2.04h6.9c5.7 0 9.66-3.72 9.66-10.02v-3c0-4.62-2.04-7.8-5.34-9.12zm.72-9.84v1.86c0 4.32-2.22 6.6-5.88 6.6h-4.02v-15.06h4.02c3.66 0 5.88 2.28 5.88 6.6zm.6 21.96c0 4.32-2.22 6.6-5.88 6.6h-4.62v-16.86h4.62c3.66 0 5.88 2.28 5.88 6.6zm10.38 8.28a1.906 1.906 0 0 0 1.98 2.04 1.953 1.953 0 0 0 2.04-2.04v-15.84h4.32a9.811 9.811 0 0 0 1.32-.12l5.88 16.32c.42 1.2 1.08 1.68 1.98 1.68a1.842 1.842 0 0 0 1.98-1.92 4.9 4.9 0 0 0-.3-1.32l-5.94-15.96c3-1.32 4.98-4.38 4.98-8.82v-4.08c0-6.6-3.84-10.2-9.78-10.2h-6.48a1.89 1.89 0 0 0-1.98 1.98zm4.02-19.2v-17.4h4.32c3.66 0 5.88 2.28 5.88 6.6v4.2c0 4.32-2.22 6.6-5.88 6.6zm38.46 19.38a1.763 1.763 0 0 0 1.86 1.86 1.98 1.98 0 0 0 1.98-1.92l1.8-9.06h9l1.74 9a2.046 2.046 0 0 0 2.04 1.98 1.906 1.906 0 0 0 2.04-1.98 8.431 8.431 0 0 0-.12-1.08l-7.74-37.32c-.36-1.5-1.14-2.22-2.34-2.22s-1.98.72-2.34 2.22l-7.8 37.5a6.682 6.682 0 0 0-.12 1.02zm6.18-12.42l3.96-20.52 3.96 20.52zm18.66 12.24a1.906 1.906 0 0 0 1.98 2.04 1.953 1.953 0 0 0 2.04-2.04v-18.96l9.9 19.56a2.106 2.106 0 0 0 1.98 1.44 1.939 1.939 0 0 0 2.04-1.98 3.3 3.3 0 0 0-.42-1.38l-9.84-18.78 9.3-17.22a3.129 3.129 0 0 0 .36-1.32 1.926 1.926 0 0 0-2.04-1.92 2.194 2.194 0 0 0-2.04 1.56l-9.24 18.24v-17.82a1.939 1.939 0 0 0-2.04-1.98 1.89 1.89 0 0 0-1.98 1.98zm46.68-36.48a1.827 1.827 0 0 0 1.92-1.92 1.812 1.812 0 0 0-1.92-1.86h-10.86a1.89 1.89 0 0 0-1.98 1.98v38.28a1.906 1.906 0 0 0 1.98 2.04 1.953 1.953 0 0 0 2.04-2.04V3815h7.02a1.749 1.749 0 0 0 1.8-1.86 1.783 1.783 0 0 0-1.8-1.86h-7.02v-16.5zm6.36 36.48a1.906 1.906 0 0 0 1.98 2.04 1.953 1.953 0 0 0 2.04-2.04v-15.84h4.32a9.812 9.812 0 0 0 1.32-.12l5.88 16.32c.42 1.2 1.08 1.68 1.98 1.68a1.842 1.842 0 0 0 1.98-1.92 4.9 4.9 0 0 0-.3-1.32l-5.94-15.96c3-1.32 4.98-4.38 4.98-8.82v-4.08c0-6.6-3.84-10.2-9.78-10.2h-6.48a1.89 1.89 0 0 0-1.98 1.98zm4.02-19.2v-17.4h4.32c3.66 0 5.88 2.28 5.88 6.6v4.2c0 4.32-2.22 6.6-5.88 6.6zm34.08 17.16h-9.36v-16.32h7.38a1.654 1.654 0 0 0 1.74-1.8 1.654 1.654 0 0 0-1.74-1.8h-7.38v-14.52h9.06a1.812 1.812 0 0 0 1.86-1.92 1.8 1.8 0 0 0-1.86-1.86h-11.1a1.89 1.89 0 0 0-1.98 1.98v37.98a1.906 1.906 0 0 0 1.98 2.04h11.4a1.812 1.812 0 0 0 1.86-1.92 1.8 1.8 0 0 0-1.86-1.86zm20.34 0h-9.36v-16.32h7.38a1.654 1.654 0 0 0 1.74-1.8 1.654 1.654 0 0 0-1.74-1.8h-7.38v-14.52h9.06a1.812 1.812 0 0 0 1.86-1.92 1.8 1.8 0 0 0-1.86-1.86h-11.1a1.89 1.89 0 0 0-1.98 1.98v37.98a1.906 1.906 0 0 0 1.98 2.04h11.4a1.812 1.812 0 0 0 1.86-1.92 1.8 1.8 0 0 0-1.86-1.86z"/><rect data-name="Rectangle 36" width="17" height="4" rx="2" transform="translate(2804 3791)"/><rect data-name="Rectangle 37" width="17" height="4" rx="2" transform="translate(2804 3810)"/><rect data-name="Rectangle 38" width="17" height="4" rx="2" transform="translate(2804 3829)"/></g><g data-name="Group 79" transform="translate(-2749 -3718)" fill="#df1e36"><path data-name="Path 53" d="M2768.98 3810.86c2.94-1.5 4.74-4.62 4.74-8.94v-1.02c0-6.36-3.84-9.9-9.48-9.9h-6.48a1.89 1.89 0 0 0-1.98 1.98v37.98a1.906 1.906 0 0 0 1.98 2.04h6.9c5.7 0 9.66-3.72 9.66-10.02v-3c0-4.62-2.04-7.8-5.34-9.12zm.72-9.84v1.86c0 4.32-2.22 6.6-5.88 6.6h-4.02v-15.06h4.02c3.66 0 5.88 2.28 5.88 6.6zm.6 21.96c0 4.32-2.22 6.6-5.88 6.6h-4.62v-16.86h4.62c3.66 0 5.88 2.28 5.88 6.6zm10.38 8.28a1.906 1.906 0 0 0 1.98 2.04 1.953 1.953 0 0 0 2.04-2.04v-15.84h4.32a9.811 9.811 0 0 0 1.32-.12l5.88 16.32c.42 1.2 1.08 1.68 1.98 1.68a1.842 1.842 0 0 0 1.98-1.92 4.9 4.9 0 0 0-.3-1.32l-5.94-15.96c3-1.32 4.98-4.38 4.98-8.82v-4.08c0-6.6-3.84-10.2-9.78-10.2h-6.48a1.89 1.89 0 0 0-1.98 1.98zm4.02-19.2v-17.4h4.32c3.66 0 5.88 2.28 5.88 6.6v4.2c0 4.32-2.22 6.6-5.88 6.6zm38.46 19.38a1.763 1.763 0 0 0 1.86 1.86 1.98 1.98 0 0 0 1.98-1.92l1.8-9.06h9l1.74 9a2.046 2.046 0 0 0 2.04 1.98 1.906 1.906 0 0 0 2.04-1.98 8.431 8.431 0 0 0-.12-1.08l-7.74-37.32c-.36-1.5-1.14-2.22-2.34-2.22s-1.98.72-2.34 2.22l-7.8 37.5a6.682 6.682 0 0 0-.12 1.02zm6.18-12.42l3.96-20.52 3.96 20.52zm18.66 12.24a1.906 1.906 0 0 0 1.98 2.04 1.953 1.953 0 0 0 2.04-2.04v-18.96l9.9 19.56a2.106 2.106 0 0 0 1.98 1.44 1.939 1.939 0 0 0 2.04-1.98 3.3 3.3 0 0 0-.42-1.38l-9.84-18.78 9.3-17.22a3.129 3.129 0 0 0 .36-1.32 1.926 1.926 0 0 0-2.04-1.92 2.194 2.194 0 0 0-2.04 1.56l-9.24 18.24v-17.82a1.939 1.939 0 0 0-2.04-1.98 1.89 1.89 0 0 0-1.98 1.98zm46.68-36.48a1.827 1.827 0 0 0 1.92-1.92 1.812 1.812 0 0 0-1.92-1.86h-10.86a1.89 1.89 0 0 0-1.98 1.98v38.28a1.906 1.906 0 0 0 1.98 2.04 1.953 1.953 0 0 0 2.04-2.04V3815h7.02a1.749 1.749 0 0 0 1.8-1.86 1.783 1.783 0 0 0-1.8-1.86h-7.02v-16.5zm6.36 36.48a1.906 1.906 0 0 0 1.98 2.04 1.953 1.953 0 0 0 2.04-2.04v-15.84h4.32a9.812 9.812 0 0 0 1.32-.12l5.88 16.32c.42 1.2 1.08 1.68 1.98 1.68a1.842 1.842 0 0 0 1.98-1.92 4.9 4.9 0 0 0-.3-1.32l-5.94-15.96c3-1.32 4.98-4.38 4.98-8.82v-4.08c0-6.6-3.84-10.2-9.78-10.2h-6.48a1.89 1.89 0 0 0-1.98 1.98zm4.02-19.2v-17.4h4.32c3.66 0 5.88 2.28 5.88 6.6v4.2c0 4.32-2.22 6.6-5.88 6.6zm34.08 17.16h-9.36v-16.32h7.38a1.654 1.654 0 0 0 1.74-1.8 1.654 1.654 0 0 0-1.74-1.8h-7.38v-14.52h9.06a1.812 1.812 0 0 0 1.86-1.92 1.8 1.8 0 0 0-1.86-1.86h-11.1a1.89 1.89 0 0 0-1.98 1.98v37.98a1.906 1.906 0 0 0 1.98 2.04h11.4a1.812 1.812 0 0 0 1.86-1.92 1.8 1.8 0 0 0-1.86-1.86zm20.34 0h-9.36v-16.32h7.38a1.654 1.654 0 0 0 1.74-1.8 1.654 1.654 0 0 0-1.74-1.8h-7.38v-14.52h9.06a1.812 1.812 0 0 0 1.86-1.92 1.8 1.8 0 0 0-1.86-1.86h-11.1a1.89 1.89 0 0 0-1.98 1.98v37.98a1.906 1.906 0 0 0 1.98 2.04h11.4a1.812 1.812 0 0 0 1.86-1.92 1.8 1.8 0 0 0-1.86-1.86z"/><rect data-name="Rectangle 36" width="17" height="4" rx="2" transform="translate(2804 3791)"/><rect data-name="Rectangle 37" width="17" height="4" rx="2" transform="translate(2804 3810)"/><rect data-name="Rectangle 38" width="17" height="4" rx="2" transform="translate(2804 3829)"/></g></g></svg>