<svg xmlns="http://www.w3.org/2000/svg" width="183" height="119" viewBox="0 0 183 119"><defs><clipPath id="a"><path d="M0 0h183v119H0z"/></clipPath></defs><g data-name="Artboard – 2" clip-path="url(#a)"><path data-name="Path 51" d="M13.78 49.38a1.827 1.827 0 0 0 1.92 1.92 1.812 1.812 0 0 0 1.86-1.92v-30.3L24.76 42c.3 1.08.84 1.5 1.56 1.5.78 0 1.32-.42 1.62-1.5l7.14-22.92v30.3A1.86 1.86 0 0 0 37 51.3a1.827 1.827 0 0 0 1.92-1.92V10.86a2 2 0 0 0-2.1-2.16c-1.02 0-1.8.6-2.22 1.98l-8.16 26.16-8.1-26.16a2.279 2.279 0 0 0-2.28-1.98 2.176 2.176 0 0 0-2.28 2.4zm32.1-31.26V42c0 5.94 3.96 9.6 9.18 9.6 5.28 0 9.36-3.78 9.36-9.72V18c0-5.94-3.96-9.6-9.18-9.6-5.28 0-9.36 3.78-9.36 9.72zm4.02 23.7V18.18c0-3.84 2.16-6.06 5.22-6.06 3.12 0 5.28 2.22 5.28 6.06v23.64c0 3.84-2.16 6.06-5.28 6.06-3.06 0-5.22-2.22-5.22-6.06zm18.18-31.14a9.244 9.244 0 0 0 .12 1.14l7.5 37.2c.24 1.56 1.08 2.28 2.28 2.28 1.26 0 2.1-.72 2.4-2.28l7.44-37.38a6.682 6.682 0 0 0 .12-1.02 1.78 1.78 0 0 0-1.86-1.92 1.927 1.927 0 0 0-1.98 1.86l-6 31.86-5.88-31.74a2.008 2.008 0 0 0-2.04-1.98 1.99 1.99 0 0 0-2.1 1.98zm37.62 36.54h-9.36V30.9h7.38a1.654 1.654 0 0 0 1.74-1.8 1.654 1.654 0 0 0-1.74-1.8h-7.38V12.78h9.06a1.812 1.812 0 0 0 1.86-1.92A1.8 1.8 0 0 0 105.4 9H94.3a1.89 1.89 0 0 0-1.98 1.98v37.98A1.906 1.906 0 0 0 94.3 51h11.4a1.812 1.812 0 0 0 1.86-1.92 1.8 1.8 0 0 0-1.86-1.86zm17.88-29.1V42c0 5.94 3.96 9.6 9.18 9.6 5.28 0 9.36-3.78 9.36-9.72V18c0-5.94-3.96-9.6-9.18-9.6-5.28 0-9.36 3.78-9.36 9.72zm4.02 23.7V18.18c0-3.84 2.16-6.06 5.22-6.06 3.12 0 5.28 2.22 5.28 6.06v23.64c0 3.84-2.16 6.06-5.28 6.06-3.06 0-5.22-2.22-5.22-6.06zm21.48 7.68a1.733 1.733 0 0 0 1.8 1.8 1.733 1.733 0 0 0 1.8-1.8V18.18l11.1 31.26c.48 1.38 1.14 1.92 2.16 1.92 1.26 0 1.98-.84 1.98-2.22V10.5a1.733 1.733 0 0 0-1.8-1.8 1.733 1.733 0 0 0-1.8 1.8v30.6l-10.8-30.36c-.48-1.38-1.26-2.04-2.34-2.04a2.038 2.038 0 0 0-2.1 2.28z" fill="#fff"/><path data-name="Path 57" d="M13.78 114.38a1.827 1.827 0 0 0 1.92 1.92 1.812 1.812 0 0 0 1.86-1.92v-30.3l7.2 22.92c.3 1.08.84 1.5 1.56 1.5.78 0 1.32-.42 1.62-1.5l7.14-22.92v30.3A1.86 1.86 0 0 0 37 116.3a1.827 1.827 0 0 0 1.92-1.92V75.86a2 2 0 0 0-2.1-2.16c-1.02 0-1.8.6-2.22 1.98l-8.16 26.16-8.1-26.16a2.279 2.279 0 0 0-2.28-1.98 2.176 2.176 0 0 0-2.28 2.4zm32.1-31.26V107c0 5.94 3.96 9.6 9.18 9.6 5.28 0 9.36-3.78 9.36-9.72V83c0-5.94-3.96-9.6-9.18-9.6-5.28 0-9.36 3.78-9.36 9.72zm4.02 23.7V83.18c0-3.84 2.16-6.06 5.22-6.06 3.12 0 5.28 2.22 5.28 6.06v23.64c0 3.84-2.16 6.06-5.28 6.06-3.06 0-5.22-2.22-5.22-6.06zm18.18-31.14a9.244 9.244 0 0 0 .12 1.14l7.5 37.2c.24 1.56 1.08 2.28 2.28 2.28 1.26 0 2.1-.72 2.4-2.28l7.44-37.38a6.682 6.682 0 0 0 .12-1.02 1.78 1.78 0 0 0-1.86-1.92 1.927 1.927 0 0 0-1.98 1.86l-6 31.86-5.88-31.74a2.008 2.008 0 0 0-2.04-1.98 1.99 1.99 0 0 0-2.1 1.98zm37.62 36.54h-9.36V95.9h7.38a1.654 1.654 0 0 0 1.74-1.8 1.654 1.654 0 0 0-1.74-1.8h-7.38V77.78h9.06a1.812 1.812 0 0 0 1.86-1.92A1.8 1.8 0 0 0 105.4 74H94.3a1.89 1.89 0 0 0-1.98 1.98v37.98A1.906 1.906 0 0 0 94.3 116h11.4a1.812 1.812 0 0 0 1.86-1.92 1.8 1.8 0 0 0-1.86-1.86zm17.88-29.1V107c0 5.94 3.96 9.6 9.18 9.6 5.28 0 9.36-3.78 9.36-9.72V83c0-5.94-3.96-9.6-9.18-9.6-5.28 0-9.36 3.78-9.36 9.72zm4.02 23.7V83.18c0-3.84 2.16-6.06 5.22-6.06 3.12 0 5.28 2.22 5.28 6.06v23.64c0 3.84-2.16 6.06-5.28 6.06-3.06 0-5.22-2.22-5.22-6.06zm21.48 7.68a1.733 1.733 0 0 0 1.8 1.8 1.733 1.733 0 0 0 1.8-1.8V83.18l11.1 31.26c.48 1.38 1.14 1.92 2.16 1.92 1.26 0 1.98-.84 1.98-2.22V75.5a1.733 1.733 0 0 0-1.8-1.8 1.733 1.733 0 0 0-1.8 1.8v30.6l-10.8-30.36c-.48-1.38-1.26-2.04-2.34-2.04a2.038 2.038 0 0 0-2.1 2.28z" fill="#78b13b"/></g></svg>