<svg width="110" height="44" viewBox="0 0 110 44" xmlns="http://www.w3.org/2000/svg" xmlns:xlink="http://www.w3.org/1999/xlink"><title>Artboard</title><defs><path id="a" d="M0 0h191v119H0z"/></defs><g transform="translate(-10 -70)" fill="none" fill-rule="evenodd"><mask id="b" fill="#fff"><use xlink:href="#a"/></mask><g mask="url(#b)" fill="#F36B21" fill-rule="nonzero"><path d="M10.6 111.44a1.763 1.763 0 0 0 1.86 1.86 1.98 1.98 0 0 0 1.98-1.92l1.8-9.06h9l1.74 9a2.046 2.046 0 0 0 2.04 1.98 1.906 1.906 0 0 0 2.04-1.98 8.431 8.431 0 0 0-.12-1.08L23.2 72.92c-.36-1.5-1.14-2.22-2.34-2.22s-1.98.72-2.34 2.22l-7.8 37.5a6.681 6.681 0 0 0-.12 1.02zm6.18-12.42l3.96-20.52 3.96 20.52h-7.92zm33.84-13.44a1.86 1.86 0 0 0 1.92-1.92v-4.02c0-5.76-3.72-9.24-8.76-9.24-5.1 0-9.06 3.66-9.06 9.42v24.48c0 5.76 3.84 9.3 8.88 9.3 5.04 0 8.94-3.66 8.94-9.36v-4.56a1.9 1.9 0 0 0-1.92-1.92 1.91 1.91 0 0 0-1.98 1.92v4.44c0 3.66-2.04 5.76-4.98 5.76-2.88 0-4.92-2.1-4.92-5.76V79.88c0-3.66 2.04-5.76 4.92-5.76 2.94 0 4.98 2.1 4.98 5.76v3.78a1.875 1.875 0 0 0 1.98 1.92zM73.3 71H57.76a1.812 1.812 0 0 0-1.92 1.86 1.827 1.827 0 0 0 1.92 1.92h5.7v36.48a1.953 1.953 0 0 0 2.04 2.04 1.906 1.906 0 0 0 1.98-2.04V74.78h5.82a1.812 1.812 0 0 0 1.86-1.92A1.8 1.8 0 0 0 73.3 71zm8.7-.3a1.953 1.953 0 0 0-2.04 2.04v38.46a1.969 1.969 0 0 0 2.04 2.1 1.984 1.984 0 0 0 2.1-2.1V72.74A1.969 1.969 0 0 0 82 70.7zm6.78 1.98c.016.382.056.763.12 1.14l7.5 37.2c.24 1.56 1.08 2.28 2.28 2.28 1.26 0 2.1-.72 2.4-2.28l7.44-37.38c.066-.336.106-.677.12-1.02a1.78 1.78 0 0 0-1.86-1.92 1.927 1.927 0 0 0-1.98 1.86l-6 31.86-5.88-31.74a2.008 2.008 0 0 0-2.04-1.98 1.99 1.99 0 0 0-2.1 1.98zm24.96 10.5c0 1.14.6 1.92 1.62 1.92a1.624 1.624 0 0 0 1.68-1.62c.78-6.9 1.08-9.66 1.08-10.68a1.969 1.969 0 0 0-2.04-2.1 1.986 1.986 0 0 0-2.04 2.16l-.3 10.32z"/></g></g></svg>