<svg xmlns="http://www.w3.org/2000/svg" width="191" height="119" viewBox="0 0 191 119"><defs><clipPath id="a"><path d="M0 0h191v119H0z"/></clipPath></defs><g data-name="Artboard – 1" clip-path="url(#a)"><path data-name="Path 50" d="M10.6 46.44a1.763 1.763 0 0 0 1.86 1.86 1.98 1.98 0 0 0 1.98-1.92l1.8-9.06h9l1.74 9a2.046 2.046 0 0 0 2.04 1.98 1.906 1.906 0 0 0 2.04-1.98 8.431 8.431 0 0 0-.12-1.08L23.2 7.92c-.36-1.5-1.14-2.22-2.34-2.22s-1.98.72-2.34 2.22l-7.8 37.5a6.681 6.681 0 0 0-.12 1.02zm6.18-12.42l3.96-20.52 3.96 20.52zm33.84-13.44a1.86 1.86 0 0 0 1.92-1.92v-4.02c0-5.76-3.72-9.24-8.76-9.24-5.1 0-9.06 3.66-9.06 9.42V39.3c0 5.76 3.84 9.3 8.88 9.3s8.94-3.66 8.94-9.36v-4.56a1.9 1.9 0 0 0-1.92-1.92 1.91 1.91 0 0 0-1.98 1.92v4.44c0 3.66-2.04 5.76-4.98 5.76-2.88 0-4.92-2.1-4.92-5.76V14.88c0-3.66 2.04-5.76 4.92-5.76 2.94 0 4.98 2.1 4.98 5.76v3.78a1.875 1.875 0 0 0 1.98 1.92zM73.3 6H57.76a1.812 1.812 0 0 0-1.92 1.86 1.827 1.827 0 0 0 1.92 1.92h5.7v36.48a1.953 1.953 0 0 0 2.04 2.04 1.906 1.906 0 0 0 1.98-2.04V9.78h5.82a1.812 1.812 0 0 0 1.86-1.92A1.8 1.8 0 0 0 73.3 6zm8.7-.3a1.953 1.953 0 0 0-2.04 2.04V46.2A1.969 1.969 0 0 0 82 48.3a1.984 1.984 0 0 0 2.1-2.1V7.74A1.969 1.969 0 0 0 82 5.7zm6.78 1.98a9.244 9.244 0 0 0 .12 1.14l7.5 37.2c.24 1.56 1.08 2.28 2.28 2.28 1.26 0 2.1-.72 2.4-2.28l7.44-37.38a6.681 6.681 0 0 0 .12-1.02 1.78 1.78 0 0 0-1.86-1.92 1.927 1.927 0 0 0-1.98 1.86l-6 31.86-5.88-31.74a2.008 2.008 0 0 0-2.04-1.98 1.99 1.99 0 0 0-2.1 1.98zm24.96 10.5c0 1.14.6 1.92 1.62 1.92a1.624 1.624 0 0 0 1.68-1.62c.78-6.9 1.08-9.66 1.08-10.68a1.969 1.969 0 0 0-2.04-2.1 1.986 1.986 0 0 0-2.04 2.16z" fill="#fff"/><path data-name="Path 56" d="M10.6 111.44a1.763 1.763 0 0 0 1.86 1.86 1.98 1.98 0 0 0 1.98-1.92l1.8-9.06h9l1.74 9a2.046 2.046 0 0 0 2.04 1.98 1.906 1.906 0 0 0 2.04-1.98 8.431 8.431 0 0 0-.12-1.08L23.2 72.92c-.36-1.5-1.14-2.22-2.34-2.22s-1.98.72-2.34 2.22l-7.8 37.5a6.681 6.681 0 0 0-.12 1.02zm6.18-12.42l3.96-20.52 3.96 20.52zm33.84-13.44a1.86 1.86 0 0 0 1.92-1.92v-4.02c0-5.76-3.72-9.24-8.76-9.24-5.1 0-9.06 3.66-9.06 9.42v24.48c0 5.76 3.84 9.3 8.88 9.3s8.94-3.66 8.94-9.36v-4.56a1.9 1.9 0 0 0-1.92-1.92 1.91 1.91 0 0 0-1.98 1.92v4.44c0 3.66-2.04 5.76-4.98 5.76-2.88 0-4.92-2.1-4.92-5.76V79.88c0-3.66 2.04-5.76 4.92-5.76 2.94 0 4.98 2.1 4.98 5.76v3.78a1.875 1.875 0 0 0 1.98 1.92zM73.3 71H57.76a1.812 1.812 0 0 0-1.92 1.86 1.827 1.827 0 0 0 1.92 1.92h5.7v36.48a1.953 1.953 0 0 0 2.04 2.04 1.906 1.906 0 0 0 1.98-2.04V74.78h5.82a1.812 1.812 0 0 0 1.86-1.92A1.8 1.8 0 0 0 73.3 71zm8.7-.3a1.953 1.953 0 0 0-2.04 2.04v38.46a1.969 1.969 0 0 0 2.04 2.1 1.984 1.984 0 0 0 2.1-2.1V72.74A1.969 1.969 0 0 0 82 70.7zm6.78 1.98a9.244 9.244 0 0 0 .12 1.14l7.5 37.2c.24 1.56 1.08 2.28 2.28 2.28 1.26 0 2.1-.72 2.4-2.28l7.44-37.38a6.681 6.681 0 0 0 .12-1.02 1.78 1.78 0 0 0-1.86-1.92 1.927 1.927 0 0 0-1.98 1.86l-6 31.86-5.88-31.74a2.008 2.008 0 0 0-2.04-1.98 1.99 1.99 0 0 0-2.1 1.98zm24.96 10.5c0 1.14.6 1.92 1.62 1.92a1.624 1.624 0 0 0 1.68-1.62c.78-6.9 1.08-9.66 1.08-10.68a1.969 1.969 0 0 0-2.04-2.1 1.986 1.986 0 0 0-2.04 2.16z" fill="#f36b21"/></g></svg>