<svg width="164" height="44" viewBox="0 0 164 44" xmlns="http://www.w3.org/2000/svg" xmlns:xlink="http://www.w3.org/1999/xlink"><title>Artboard</title><defs><path id="a" d="M0 0h176v119H0z"/></defs><g transform="translate(-6 -69)" fill="none" fill-rule="evenodd"><mask id="b" fill="#fff"><use xlink:href="#a"/></mask><g mask="url(#b)"><path d="M6.78 110.38a1.827 1.827 0 0 0 1.92 1.92 1.812 1.812 0 0 0 1.86-1.92v-30.3l7.2 22.92c.3 1.08.84 1.5 1.56 1.5.78 0 1.32-.42 1.62-1.5l7.14-22.92v30.3A1.86 1.86 0 0 0 30 112.3a1.827 1.827 0 0 0 1.92-1.92V71.86a2 2 0 0 0-2.1-2.16c-1.02 0-1.8.6-2.22 1.98l-8.16 26.16-8.1-26.16a2.279 2.279 0 0 0-2.28-1.98 2.176 2.176 0 0 0-2.28 2.4v38.28zm32.1-31.26V103c0 5.94 3.96 9.6 9.18 9.6 5.28 0 9.36-3.78 9.36-9.72V79c0-5.94-3.96-9.6-9.18-9.6-5.28 0-9.36 3.78-9.36 9.72zm4.02 23.7V79.18c0-3.84 2.16-6.06 5.22-6.06 3.12 0 5.28 2.22 5.28 6.06v23.64c0 3.84-2.16 6.06-5.28 6.06-3.06 0-5.22-2.22-5.22-6.06zm20.88-23.7V103c0 5.94 3.96 9.6 9.18 9.6 5.28 0 9.36-3.78 9.36-9.72V79c0-5.94-3.96-9.6-9.18-9.6-5.28 0-9.36 3.78-9.36 9.72zm4.02 23.7V79.18c0-3.84 2.16-6.06 5.22-6.06 3.12 0 5.28 2.22 5.28 6.06v23.64c0 3.84-2.16 6.06-5.28 6.06-3.06 0-5.22-2.22-5.22-6.06zm73.92-33.12a1.926 1.926 0 0 0-2.04 1.92v31.5c0 3.66-2.04 5.76-4.98 5.76-2.88 0-4.92-2.1-4.92-5.76V71.68a2.041 2.041 0 0 0-4.08 0v31.62c0 5.76 3.84 9.3 8.88 9.3 5.1 0 9.06-3.66 9.06-9.42V71.62a1.86 1.86 0 0 0-1.92-1.92zm17.64.3h-6.48a1.89 1.89 0 0 0-1.98 1.98v38.28a1.906 1.906 0 0 0 1.98 2.04 1.953 1.953 0 0 0 2.04-2.04V95.2h4.26c5.94 0 9.96-3.78 9.96-10.38V80.2c0-6.6-3.84-10.2-9.78-10.2zm5.76 15c0 4.32-2.22 6.6-5.88 6.6h-4.32V73.66h4.32c3.66 0 5.88 2.28 5.88 6.6V85z" stroke-opacity="0" stroke="#000" fill="#CB4D9C" fill-rule="nonzero"/><path d="M91.314 71.9h7.506s6.326-.159 6.582 6.941c.256 7.1 0 24.254 0 24.254s.16 7.03-6.582 7.177c-2.5.135-5.006.135-7.506 0" stroke="#CB4D9C" stroke-width="4" stroke-linecap="round"/></g></g></svg>