<svg xmlns="http://www.w3.org/2000/svg" width="176" height="119" viewBox="0 0 176 119"><defs><clipPath id="a"><path d="M0 0h176v119H0z"/></clipPath></defs><g data-name="Artboard – 4" clip-path="url(#a)"><path data-name="Path 63" d="M6.78 47.38A1.827 1.827 0 0 0 8.7 49.3a1.812 1.812 0 0 0 1.86-1.92v-30.3L17.76 40c.3 1.08.84 1.5 1.56 1.5.78 0 1.32-.42 1.62-1.5l7.14-22.92v30.3A1.86 1.86 0 0 0 30 49.3a1.827 1.827 0 0 0 1.92-1.92V8.86a2 2 0 0 0-2.1-2.16c-1.02 0-1.8.6-2.22 1.98l-8.16 26.16-8.1-26.16A2.279 2.279 0 0 0 9.06 6.7a2.176 2.176 0 0 0-2.28 2.4zm32.1-31.26V40c0 5.94 3.96 9.6 9.18 9.6 5.28 0 9.36-3.78 9.36-9.72V16c0-5.94-3.96-9.6-9.18-9.6-5.28 0-9.36 3.78-9.36 9.72zm4.02 23.7V16.18c0-3.84 2.16-6.06 5.22-6.06 3.12 0 5.28 2.22 5.28 6.06v23.64c0 3.84-2.16 6.06-5.28 6.06-3.06 0-5.22-2.22-5.22-6.06zm20.88-23.7V40c0 5.94 3.96 9.6 9.18 9.6 5.28 0 9.36-3.78 9.36-9.72V16c0-5.94-3.96-9.6-9.18-9.6-5.28 0-9.36 3.78-9.36 9.72zm4.02 23.7V16.18c0-3.84 2.16-6.06 5.22-6.06 3.12 0 5.28 2.22 5.28 6.06v23.64c0 3.84-2.16 6.06-5.28 6.06-3.06 0-5.22-2.22-5.22-6.06zM141.72 6.7a1.926 1.926 0 0 0-2.04 1.92v31.5c0 3.66-2.04 5.76-4.98 5.76-2.88 0-4.92-2.1-4.92-5.76V8.68a2.041 2.041 0 0 0-4.08 0V40.3c0 5.76 3.84 9.3 8.88 9.3 5.1 0 9.06-3.66 9.06-9.42V8.62a1.86 1.86 0 0 0-1.92-1.92zm17.64.3h-6.48a1.89 1.89 0 0 0-1.98 1.98v38.28a1.906 1.906 0 0 0 1.98 2.04 1.953 1.953 0 0 0 2.04-2.04V32.2h4.26c5.94 0 9.96-3.78 9.96-10.38V17.2c0-6.6-3.84-10.2-9.78-10.2zm5.76 15c0 4.32-2.22 6.6-5.88 6.6h-4.32V10.66h4.32c3.66 0 5.88 2.28 5.88 6.6z" fill="#fff" stroke="rgba(0,0,0,0)"/><g data-name="Component 34 – 1"><path data-name="Path 61" d="M91.314 8.9h7.506s6.326-.159 6.582 6.941 0 24.254 0 24.254.16 7.03-6.582 7.177a69.682 69.682 0 0 1-7.506 0" fill="none" stroke="#fff" stroke-linecap="round" stroke-miterlimit="10" stroke-width="4"/></g><path data-name="Path 64" d="M6.78 110.38a1.827 1.827 0 0 0 1.92 1.92 1.812 1.812 0 0 0 1.86-1.92v-30.3l7.2 22.92c.3 1.08.84 1.5 1.56 1.5.78 0 1.32-.42 1.62-1.5l7.14-22.92v30.3A1.86 1.86 0 0 0 30 112.3a1.827 1.827 0 0 0 1.92-1.92V71.86a2 2 0 0 0-2.1-2.16c-1.02 0-1.8.6-2.22 1.98l-8.16 26.16-8.1-26.16a2.279 2.279 0 0 0-2.28-1.98 2.176 2.176 0 0 0-2.28 2.4zm32.1-31.26V103c0 5.94 3.96 9.6 9.18 9.6 5.28 0 9.36-3.78 9.36-9.72V79c0-5.94-3.96-9.6-9.18-9.6-5.28 0-9.36 3.78-9.36 9.72zm4.02 23.7V79.18c0-3.84 2.16-6.06 5.22-6.06 3.12 0 5.28 2.22 5.28 6.06v23.64c0 3.84-2.16 6.06-5.28 6.06-3.06 0-5.22-2.22-5.22-6.06zm20.88-23.7V103c0 5.94 3.96 9.6 9.18 9.6 5.28 0 9.36-3.78 9.36-9.72V79c0-5.94-3.96-9.6-9.18-9.6-5.28 0-9.36 3.78-9.36 9.72zm4.02 23.7V79.18c0-3.84 2.16-6.06 5.22-6.06 3.12 0 5.28 2.22 5.28 6.06v23.64c0 3.84-2.16 6.06-5.28 6.06-3.06 0-5.22-2.22-5.22-6.06zm73.92-33.12a1.926 1.926 0 0 0-2.04 1.92v31.5c0 3.66-2.04 5.76-4.98 5.76-2.88 0-4.92-2.1-4.92-5.76V71.68a2.041 2.041 0 0 0-4.08 0v31.62c0 5.76 3.84 9.3 8.88 9.3 5.1 0 9.06-3.66 9.06-9.42V71.62a1.86 1.86 0 0 0-1.92-1.92zm17.64.3h-6.48a1.89 1.89 0 0 0-1.98 1.98v38.28a1.906 1.906 0 0 0 1.98 2.04 1.953 1.953 0 0 0 2.04-2.04V95.2h4.26c5.94 0 9.96-3.78 9.96-10.38V80.2c0-6.6-3.84-10.2-9.78-10.2zm5.76 15c0 4.32-2.22 6.6-5.88 6.6h-4.32V73.66h4.32c3.66 0 5.88 2.28 5.88 6.6z" fill="#cb4d9c" stroke="rgba(0,0,0,0)"/><g data-name="Component 34 – 2"><path data-name="Path 61" d="M91.314 71.9h7.506s6.326-.159 6.582 6.941 0 24.254 0 24.254.16 7.03-6.582 7.177a69.682 69.682 0 0 1-7.506 0" fill="none" stroke="#cb4d9c" stroke-linecap="round" stroke-miterlimit="10" stroke-width="4"/></g></g></svg>